<svg xmlns="http://www.w3.org/2000/svg" width="37.5" viewBox="0 0 37.5 37.5" height="37.5" version="1.0"><defs><clipPath id="a"><path d="M 8 0 L 37.007812 0 L 37.007812 7 L 8 7 Z M 8 0"/></clipPath><clipPath id="b"><path d="M 8 10 L 37.007812 10 L 37.007812 17 L 8 17 Z M 8 10"/></clipPath><clipPath id="c"><path d="M 8 20 L 37.007812 20 L 37.007812 28 L 8 28 Z M 8 20"/></clipPath><clipPath id="d"><path d="M 0 31 L 6 31 L 6 37.007812 L 0 37.007812 Z M 0 31"/></clipPath><clipPath id="e"><path d="M 8 30 L 37.007812 30 L 37.007812 37.007812 L 8 37.007812 Z M 8 30"/></clipPath></defs><path fill="#FFF" d="M 2.953125 0.488281 C 1.414062 0.488281 0.167969 1.734375 0.167969 3.273438 C 0.167969 4.8125 1.414062 6.0625 2.953125 6.0625 C 4.492188 6.0625 5.742188 4.8125 5.742188 3.273438 C 5.742188 1.734375 4.492188 0.488281 2.953125 0.488281 Z M 2.953125 0.488281"/><g clip-path="url(#a)"><path fill="#FFF" d="M 12.074219 6.546875 L 34.058594 6.546875 C 35.867188 6.546875 37.332031 5.082031 37.332031 3.273438 C 37.332031 1.464844 35.867188 0 34.058594 0 L 12.074219 0 C 10.265625 0 8.800781 1.464844 8.800781 3.273438 C 8.800781 5.082031 10.265625 6.546875 12.074219 6.546875 Z M 12.074219 6.546875"/></g><path fill="#FFF" d="M 2.953125 10.804688 C 1.414062 10.804688 0.167969 12.050781 0.167969 13.589844 C 0.167969 15.128906 1.414062 16.378906 2.953125 16.378906 C 4.492188 16.378906 5.742188 15.128906 5.742188 13.589844 C 5.742188 12.050781 4.492188 10.804688 2.953125 10.804688 Z M 2.953125 10.804688"/><g clip-path="url(#b)"><path fill="#FFF" d="M 34.058594 10.316406 L 12.074219 10.316406 C 10.265625 10.316406 8.800781 11.78125 8.800781 13.589844 C 8.800781 15.398438 10.265625 16.863281 12.074219 16.863281 L 34.058594 16.863281 C 35.867188 16.863281 37.332031 15.398438 37.332031 13.589844 C 37.332031 11.78125 35.867188 10.316406 34.058594 10.316406 Z M 34.058594 10.316406"/></g><path fill="#FFF" d="M 2.953125 21.121094 C 1.414062 21.121094 0.167969 22.371094 0.167969 23.910156 C 0.167969 25.449219 1.414062 26.695312 2.953125 26.695312 C 4.492188 26.695312 5.742188 25.449219 5.742188 23.910156 C 5.742188 22.371094 4.492188 21.121094 2.953125 21.121094 Z M 2.953125 21.121094"/><g clip-path="url(#c)"><path fill="#FFF" d="M 34.058594 20.636719 L 12.074219 20.636719 C 10.265625 20.636719 8.800781 22.101562 8.800781 23.910156 C 8.800781 25.714844 10.265625 27.183594 12.074219 27.183594 L 34.058594 27.183594 C 35.867188 27.183594 37.332031 25.714844 37.332031 23.910156 C 37.332031 22.101562 35.867188 20.636719 34.058594 20.636719 Z M 34.058594 20.636719"/></g><g clip-path="url(#d)"><path fill="#FFF" d="M 2.953125 31.4375 C 1.414062 31.4375 0.167969 32.6875 0.167969 34.226562 C 0.167969 35.765625 1.414062 37.011719 2.953125 37.011719 C 4.492188 37.011719 5.742188 35.765625 5.742188 34.226562 C 5.742188 32.6875 4.492188 31.4375 2.953125 31.4375 Z M 2.953125 31.4375"/></g><g clip-path="url(#e)"><path fill="#FFF" d="M 34.058594 30.953125 L 12.074219 30.953125 C 10.265625 30.953125 8.800781 32.417969 8.800781 34.226562 C 8.800781 36.035156 10.265625 37.5 12.074219 37.5 L 34.058594 37.5 C 35.867188 37.5 37.332031 36.035156 37.332031 34.226562 C 37.332031 32.417969 35.867188 30.953125 34.058594 30.953125 Z M 34.058594 30.953125"/></g></svg>