<?xml version="1.0" encoding="UTF-8"?><svg xmlns="http://www.w3.org/2000/svg" xmlns:xlink="http://www.w3.org/1999/xlink" contentScriptType="text/ecmascript" width="810" zoomAndPan="magnify" contentStyleType="text/css" viewBox="0 0 810 809.999993" height="809.999993" preserveAspectRatio="xMidYMid meet" version="1.0"><defs><clipPath id="clip-0"><path d="M 172.359375 168.632812 L 548.679688 168.632812 L 548.679688 641.132812 L 172.359375 641.132812 Z M 172.359375 168.632812 " clip-rule="nonzero"/></clipPath></defs><path fill="rgb(100%, 100%, 100%)" d="M 404.695312 785.589844 C 303 785.589844 207.246094 746.007812 135.390625 674 C 63.382812 602.144531 23.800781 506.386719 23.800781 404.695312 C 23.800781 303 63.382812 207.246094 135.390625 135.390625 C 207.246094 63.382812 303 23.800781 404.695312 23.800781 C 506.386719 23.800781 602.144531 63.382812 674 135.390625 C 746.007812 207.398438 785.589844 303 785.589844 404.695312 C 785.589844 506.386719 746.007812 602.144531 674 674 C 602.144531 746.007812 506.386719 785.589844 404.695312 785.589844 Z M 404.695312 46.636719 C 309.089844 46.636719 219.121094 83.933594 151.527344 151.527344 C 83.933594 219.121094 46.636719 309.089844 46.636719 404.695312 C 46.636719 500.300781 83.933594 590.269531 151.527344 657.863281 C 219.121094 725.457031 309.089844 762.753906 404.695312 762.753906 C 500.300781 762.753906 590.269531 725.457031 657.863281 657.863281 C 725.457031 590.269531 762.753906 500.300781 762.753906 404.695312 C 762.753906 309.089844 725.457031 219.121094 657.863281 151.527344 C 590.269531 83.933594 500.300781 46.636719 404.695312 46.636719 Z M 404.695312 46.636719 " fill-opacity="1" fill-rule="nonzero"/><g clip-path="url(#clip-0)"><path fill="rgb(100%, 100%, 100%)" d="M 498.902344 217.789062 L 221.542969 217.789062 L 221.542969 591.941406 L 498.902344 591.941406 L 498.902344 519.769531 C 498.902344 506.195312 509.917969 495.179688 523.492188 495.179688 C 537.074219 495.179688 548.085938 506.195312 548.085938 519.769531 L 548.085938 616.535156 C 548.085938 630.113281 537.074219 641.132812 523.492188 641.132812 L 196.953125 641.132812 C 183.371094 641.132812 172.359375 630.113281 172.359375 616.535156 L 172.359375 193.199219 C 172.359375 179.621094 183.371094 168.605469 196.953125 168.605469 L 523.492188 168.605469 C 537.074219 168.605469 548.085938 179.621094 548.085938 193.199219 L 548.085938 289.960938 C 548.085938 303.539062 537.074219 314.554688 523.492188 314.554688 C 509.917969 314.554688 498.902344 303.539062 498.902344 289.960938 L 498.902344 217.789062 " fill-opacity="1" fill-rule="evenodd"/></g><path fill="rgb(100%, 100%, 100%)" d="M 582.5 535.21875 L 668.332031 449.375 C 668.625 449.082031 668.929688 448.8125 669.238281 448.542969 L 712.90625 404.871094 L 669.21875 361.179688 C 668.917969 360.914062 668.617188 360.644531 668.332031 360.359375 L 582.496094 274.511719 L 582.496094 357.980469 L 399.757812 357.980469 L 399.757812 451.757812 L 582.496094 451.757812 L 582.5 535.21875 " fill-opacity="1" fill-rule="evenodd"/></svg>