<?xml version="1.0" encoding="UTF-8"?><svg xmlns="http://www.w3.org/2000/svg" xmlns:xlink="http://www.w3.org/1999/xlink" contentScriptType="text/ecmascript" width="375" zoomAndPan="magnify" contentStyleType="text/css" viewBox="0 0 375 374.999991" height="374.999991" preserveAspectRatio="xMidYMid meet" version="1.0"><defs><clipPath id="clip-0"><path d="M 112.5 112.5 L 188 112.5 L 188 262.5 L 112.5 262.5 Z M 112.5 112.5 " clip-rule="nonzero"/></clipPath><clipPath id="clip-1"><path d="M 145 150 L 262.5 150 L 262.5 226 L 145 226 Z M 145 150 " clip-rule="nonzero"/></clipPath></defs><g clip-path="url(#clip-0)"><path fill="rgb(100%, 100%, 100%)" d="M 182.8125 253.125 L 121.875 253.125 L 121.875 121.875 L 182.8125 121.875 C 185.398438 121.875 187.5 119.773438 187.5 117.1875 C 187.5 114.601562 185.398438 112.5 182.8125 112.5 L 117.1875 112.5 C 114.601562 112.5 112.5 114.601562 112.5 117.1875 L 112.5 257.8125 C 112.5 260.398438 114.601562 262.5 117.1875 262.5 L 182.8125 262.5 C 185.398438 262.5 187.5 260.398438 187.5 257.8125 C 187.5 255.226562 185.398438 253.125 182.8125 253.125 Z M 182.8125 253.125 " fill-opacity="1" fill-rule="nonzero"/></g><g clip-path="url(#clip-1)"><path fill="rgb(100%, 100%, 100%)" d="M 261.140625 184.226562 L 228.796875 151.421875 C 226.964844 149.570312 223.996094 149.574219 222.167969 151.421875 C 220.335938 153.265625 220.335938 156.265625 222.167969 158.113281 L 246.542969 182.839844 L 150.015625 182.839844 C 147.425781 182.839844 145.328125 184.960938 145.328125 187.574219 C 145.328125 190.191406 147.425781 192.308594 150.015625 192.308594 L 246.542969 192.308594 L 222.167969 217.035156 C 220.335938 218.886719 220.335938 221.882812 222.167969 223.730469 C 224 225.582031 226.96875 225.582031 228.796875 223.730469 L 261.136719 190.921875 C 262.945312 189.097656 262.964844 186.046875 261.140625 184.226562 Z M 261.140625 184.226562 " fill-opacity="1" fill-rule="nonzero"/></g></svg>