<svg xmlns="http://www.w3.org/2000/svg" width="37.5" viewBox="0 0 37.5 37.5" height="37.5" version="1.0"><path fill="#FFF" d="M 31.007812 6.492188 C 24.230469 -0.214844 13.269531 -0.214844 6.492188 6.492188 C -0.214844 13.269531 -0.214844 24.230469 6.492188 31.007812 C 13.269531 37.789062 24.230469 37.789062 30.9375 31.007812 C 37.714844 24.230469 37.714844 13.269531 31.007812 6.492188 Z M 30.289062 20.191406 C 30.289062 20.625 30 20.914062 29.566406 20.914062 L 21.632812 20.914062 C 21.273438 20.914062 20.914062 21.273438 20.914062 21.632812 L 20.914062 29.566406 C 20.914062 29.929688 20.554688 30.289062 20.191406 30.289062 L 17.308594 30.289062 C 16.875 30.289062 16.585938 30 16.585938 29.566406 L 16.585938 21.632812 C 16.585938 21.203125 16.296875 20.914062 15.867188 20.914062 L 7.933594 20.914062 C 7.5 20.914062 7.210938 20.625 7.210938 20.191406 L 7.210938 17.308594 C 7.210938 16.945312 7.570312 16.585938 7.933594 16.585938 L 15.867188 16.585938 C 16.296875 16.585938 16.585938 16.296875 16.585938 15.867188 L 16.585938 7.933594 C 16.585938 7.570312 16.945312 7.210938 17.308594 7.210938 L 20.191406 7.210938 C 20.554688 7.210938 20.914062 7.5 20.914062 7.933594 L 20.914062 15.867188 C 20.914062 16.296875 21.203125 16.585938 21.632812 16.585938 L 29.566406 16.585938 C 29.929688 16.585938 30.289062 16.945312 30.289062 17.308594 Z M 30.289062 20.191406"/></svg>